<svg xmlns="http://www.w3.org/2000/svg" viewBox="0 0 512 512" role="img" aria-labelledby="title">
  <title id="title">Chess Puzzle Reels icon</title>
  <rect width="512" height="512" rx="96" fill="#080a0d"/>
  <rect x="82" y="82" width="348" height="348" rx="40" fill="#d8c9a2"/>
  <path d="M82 169h348v87H82zM82 343h348v87H82z" fill="#526847"/>
  <path d="M169 82h87v348h-87zM343 82h87v348h-87z" fill="#526847"/>
  <path d="M256 111c39 0 70 28 70 64 0 22-11 41-29 52 36 12 62 45 62 84v43H153v-43c0-39 26-72 62-84-18-11-29-30-29-52 0-36 31-64 70-64z" fill="#f5f0e5"/>
  <path d="M205 356h102v45H205z" fill="#171814"/>
  <circle cx="256" cy="174" r="30" fill="#171814"/>
</svg>
